<svg width="44" height="44"
    viewBox="0 0 24 24" stroke-width="1.5" stroke="#efefef" fill="none" stroke-linecap="round"
    stroke-linejoin="round">
    <path stroke="none" d="M0 0h24v24H0z" fill="none" />
    <path d="M3 5v14a1 1 0 0 0 1.504 .864l12 -7a1 1 0 0 0 0 -1.728l-12 -7a1 1 0 0 0 -1.504 .864z"
        stroke-width="0" fill="#efefef" />
    <path
        d="M20 4a1 1 0 0 1 .993 .883l.007 .117v14a1 1 0 0 1 -1.993 .117l-.007 -.117v-14a1 1 0 0 1 1 -1z"
        stroke-width="0" fill="#efefef" />
</svg>